<svg width="1156" height="489" viewBox="0 0 1156 489" fill="none" xmlns="http://www.w3.org/2000/svg">
<g clip-path="url(#clip0_7946_40552)">
<path d="M3.55469 274.617L110.012 334.851L212.442 274.617V214.375L110.072 154.141L55.7745 184.262L108.002 214.382L107.994 274.617L212.449 334.859L212.442 395.093L160.222 364.972V245.702" stroke="#86C9E4" stroke-width="0.75" stroke-miterlimit="10"/>
<path d="M107.992 274.617L56.7773 304.738" stroke="#86C9E4" stroke-width="0.75" stroke-miterlimit="10"/>
<path d="M110.074 154.141V95.1055" stroke="#86C9E4" stroke-width="0.75" stroke-miterlimit="10"/>
<path d="M212.441 274.617L473.556 425.214" stroke="#86C9E4" stroke-width="0.75" stroke-miterlimit="10"/>
<path d="M369.115 244.499L578.002 364.975L421.335 455.338L369.108 425.217V304.741L316.888 274.62V154.144L369.108 124.023V63.7889L421.335 33.668L578.002 124.023V184.265L525.775 214.378L421.335 154.144L316.888 214.378L212.448 154.144L55.7734 244.499" stroke="#FF8457" stroke-width="0.75" stroke-miterlimit="10"/>
<path d="M160.223 425.214L264.67 364.972V304.738L316.89 274.617" stroke="#86C9E4" stroke-width="0.75" stroke-miterlimit="10"/>
<path d="M369.109 485.452L421.337 455.339L421.329 395.097L473.557 364.976L525.784 395.097L525.776 455.339L473.557 425.218V244.5" stroke="#86C9E4" stroke-width="0.75" stroke-miterlimit="10"/>
<path d="M212.441 214.375L316.889 154.141L369.116 184.269L369.108 304.738" stroke="#86C9E4" stroke-width="0.75" stroke-miterlimit="10"/>
<path d="M316.891 334.858L421.33 274.624L421.338 214.374L473.565 184.261V63.7848L369.11 124.019L316.891 93.9057V33.6639L369.11 3.54297" stroke="#86C9E4" stroke-width="0.75" stroke-miterlimit="10"/>
<path d="M160.224 184.263L159.699 124.32L211.919 94.207L264.146 124.32L264.154 184.562" stroke="#86C9E4" stroke-width="0.75" stroke-miterlimit="10"/>
<path d="M212.449 154.141L212.441 93.9062" stroke="#86C9E4" stroke-width="0.75" stroke-miterlimit="10"/>
<path d="M369.103 364.973L316.891 395.094V455.335L369.11 425.214" stroke="#86C9E4" stroke-width="0.75" stroke-miterlimit="10"/>
<path d="M525.777 455.335L578.005 425.214V364.973" stroke="#86C9E4" stroke-width="0.75" stroke-miterlimit="10"/>
<path d="M525.777 214.375L525.792 334.851" stroke="#86C9E4" stroke-width="0.75" stroke-miterlimit="10"/>
<path d="M525.793 274.617L578.005 304.738" stroke="#86C9E4" stroke-width="0.75" stroke-miterlimit="10"/>
<path d="M421.336 154.144V33.668" stroke="#86C9E4" stroke-width="0.75" stroke-miterlimit="10"/>
<path d="M316.891 33.668L369.11 63.7889" stroke="#86C9E4" stroke-width="0.75" stroke-miterlimit="10"/>
<path d="M473.562 124.023L525.767 93.9098L525.782 33.668L473.562 63.7889" stroke="#86C9E4" stroke-width="0.75" stroke-miterlimit="10"/>
<path d="M525.785 33.668L578.005 63.7889" stroke="#86C9E4" stroke-width="0.75" stroke-miterlimit="10"/>
<path d="M3.555 278.169C5.51837 278.169 7.11 276.579 7.11 274.618C7.11 272.656 5.51837 271.066 3.555 271.066C1.59163 271.066 0 272.656 0 274.618C0 276.579 1.59163 278.169 3.555 278.169Z" fill="#86C9E4"/>
<path d="M55.7737 248.045C57.7371 248.045 59.3287 246.454 59.3287 244.493C59.3287 242.531 57.7371 240.941 55.7737 240.941C53.8104 240.941 52.2188 242.531 52.2188 244.493C52.2188 246.454 53.8104 248.045 55.7737 248.045Z" fill="#86C9E4"/>
<path d="M108 278.17C109.964 278.17 111.555 276.579 111.555 274.618C111.555 272.657 109.964 271.066 108 271.066C106.037 271.066 104.445 272.657 104.445 274.618C104.445 276.579 106.037 278.17 108 278.17Z" fill="#86C9E4"/>
<path d="M110.075 338.404C112.038 338.404 113.63 336.814 113.63 334.852C113.63 332.891 112.038 331.301 110.075 331.301C108.111 331.301 106.52 332.891 106.52 334.852C106.52 336.814 108.111 338.404 110.075 338.404Z" fill="#86C9E4"/>
<path d="M160.223 187.814C162.186 187.814 163.778 186.224 163.778 184.263C163.778 182.301 162.186 180.711 160.223 180.711C158.26 180.711 156.668 182.301 156.668 184.263C156.668 186.224 158.26 187.814 160.223 187.814Z" fill="#86C9E4"/>
<path d="M110.075 98.6578C112.038 98.6578 113.63 97.0677 113.63 95.1063C113.63 93.1448 112.038 91.5547 110.075 91.5547C108.111 91.5547 106.52 93.1448 106.52 95.1063C106.52 97.0677 108.111 98.6578 110.075 98.6578Z" fill="#86C9E4"/>
<path d="M264.153 128.177C266.116 128.177 267.708 126.587 267.708 124.626C267.708 122.664 266.116 121.074 264.153 121.074C262.189 121.074 260.598 122.664 260.598 124.626C260.598 126.587 262.189 128.177 264.153 128.177Z" fill="#86C9E4"/>
<path d="M212.45 338.412C214.413 338.412 216.005 336.822 216.005 334.86C216.005 332.899 214.413 331.309 212.45 331.309C210.486 331.309 208.895 332.899 208.895 334.86C208.895 336.822 210.486 338.412 212.45 338.412Z" fill="#86C9E4"/>
<path d="M160.223 368.525C162.186 368.525 163.778 366.935 163.778 364.973C163.778 363.012 162.186 361.422 160.223 361.422C158.26 361.422 156.668 363.012 156.668 364.973C156.668 366.935 158.26 368.525 160.223 368.525Z" fill="#FF8457"/>
<path d="M160.223 428.767C162.186 428.767 163.778 427.177 163.778 425.216C163.778 423.254 162.186 421.664 160.223 421.664C158.26 421.664 156.668 423.254 156.668 425.216C156.668 427.177 158.26 428.767 160.223 428.767Z" fill="#86C9E4"/>
<path d="M264.668 368.525C266.632 368.525 268.223 366.935 268.223 364.973C268.223 363.012 266.632 361.422 264.668 361.422C262.705 361.422 261.113 363.012 261.113 364.973C261.113 366.935 262.705 368.525 264.668 368.525Z" fill="#86C9E4"/>
<path d="M212.442 278.169C214.405 278.169 215.997 276.579 215.997 274.618C215.997 272.656 214.405 271.066 212.442 271.066C210.478 271.066 208.887 272.656 208.887 274.618C208.887 276.579 210.478 278.169 212.442 278.169Z" fill="#86C9E4"/>
<path d="M316.887 338.412C318.85 338.412 320.442 336.822 320.442 334.86C320.442 332.899 318.85 331.309 316.887 331.309C314.924 331.309 313.332 332.899 313.332 334.86C313.332 336.822 314.924 338.412 316.887 338.412Z" fill="#86C9E4"/>
<path d="M316.887 398.646C318.85 398.646 320.442 397.056 320.442 395.095C320.442 393.133 318.85 391.543 316.887 391.543C314.924 391.543 313.332 393.133 313.332 395.095C313.332 397.056 314.924 398.646 316.887 398.646Z" fill="#86C9E4"/>
<path d="M369.11 489.002C371.073 489.002 372.665 487.411 372.665 485.45C372.665 483.489 371.073 481.898 369.11 481.898C367.146 481.898 365.555 483.489 365.555 485.45C365.555 487.411 367.146 489.002 369.11 489.002Z" fill="#86C9E4"/>
<path d="M369.117 368.533C371.081 368.533 372.673 366.943 372.673 364.981C372.673 363.02 371.081 361.43 369.117 361.43C367.154 361.43 365.562 363.02 365.562 364.981C365.562 366.943 367.154 368.533 369.117 368.533Z" fill="#FF8457"/>
<path d="M369.11 249.255C371.073 249.255 372.665 247.665 372.665 245.704C372.665 243.742 371.073 242.152 369.11 242.152C367.146 242.152 365.555 243.742 365.555 245.704C365.555 247.665 367.146 249.255 369.11 249.255Z" fill="#86C9E4"/>
<path d="M368.856 128.177C370.819 128.177 372.411 126.587 372.411 124.626C372.411 122.664 370.819 121.074 368.856 121.074C366.892 121.074 365.301 122.664 365.301 124.626C365.301 126.587 366.892 128.177 368.856 128.177Z" fill="#86C9E4"/>
<path d="M368.856 7.10314C370.819 7.10314 372.411 5.51304 372.411 3.55157C372.411 1.59009 370.819 0 368.856 0C366.892 0 365.301 1.59009 365.301 3.55157C365.301 5.51304 366.892 7.10314 368.856 7.10314Z" fill="#86C9E4"/>
<path d="M316.887 37.2203C318.85 37.2203 320.442 35.6302 320.442 33.6688C320.442 31.7073 318.85 30.1172 316.887 30.1172C314.924 30.1172 313.332 31.7073 313.332 33.6688C313.332 35.6302 314.924 37.2203 316.887 37.2203Z" fill="#86C9E4"/>
<path d="M316.887 157.693C318.85 157.693 320.442 156.103 320.442 154.141C320.442 152.18 318.85 150.59 316.887 150.59C314.924 150.59 313.332 152.18 313.332 154.141C313.332 156.103 314.924 157.693 316.887 157.693Z" fill="#86C9E4"/>
<path d="M316.887 217.935C318.85 217.935 320.442 216.345 320.442 214.384C320.442 212.422 318.85 210.832 316.887 210.832C314.924 210.832 313.332 212.422 313.332 214.384C313.332 216.345 314.924 217.935 316.887 217.935Z" fill="#86C9E4"/>
<path d="M421.328 217.935C423.292 217.935 424.883 216.345 424.883 214.384C424.883 212.422 423.292 210.832 421.328 210.832C419.365 210.832 417.773 212.422 417.773 214.384C417.773 216.345 419.365 217.935 421.328 217.935Z" fill="#86C9E4"/>
<path d="M421.328 278.169C423.292 278.169 424.883 276.579 424.883 274.618C424.883 272.656 423.292 271.066 421.328 271.066C419.365 271.066 417.773 272.656 417.773 274.618C417.773 276.579 419.365 278.169 421.328 278.169Z" fill="#86C9E4"/>
<path d="M473.563 248.045C475.526 248.045 477.118 246.454 477.118 244.493C477.118 242.531 475.526 240.941 473.563 240.941C471.599 240.941 470.008 242.531 470.008 244.493C470.008 246.454 471.599 248.045 473.563 248.045Z" fill="#86C9E4"/>
<path d="M473.555 187.806C475.518 187.806 477.11 186.216 477.11 184.255C477.11 182.293 475.518 180.703 473.555 180.703C471.592 180.703 470 182.293 470 184.255C470 186.216 471.592 187.806 473.555 187.806Z" fill="#FF8457"/>
<path d="M473.555 368.533C475.518 368.533 477.11 366.943 477.11 364.981C477.11 363.02 475.518 361.43 473.555 361.43C471.592 361.43 470 363.02 470 364.981C470 366.943 471.592 368.533 473.555 368.533Z" fill="#86C9E4"/>
<path d="M421.336 458.892C423.3 458.892 424.891 457.302 424.891 455.341C424.891 453.379 423.3 451.789 421.336 451.789C419.373 451.789 417.781 453.379 417.781 455.341C417.781 457.302 419.373 458.892 421.336 458.892Z" fill="#86C9E4"/>
<path d="M525.774 458.877C527.737 458.877 529.329 457.286 529.329 455.325C529.329 453.364 527.737 451.773 525.774 451.773C523.81 451.773 522.219 453.364 522.219 455.325C522.219 457.286 523.81 458.877 525.774 458.877Z" fill="#86C9E4"/>
<path d="M525.774 398.646C527.737 398.646 529.329 397.056 529.329 395.095C529.329 393.133 527.737 391.543 525.774 391.543C523.81 391.543 522.219 393.133 522.219 395.095C522.219 397.056 523.81 398.646 525.774 398.646Z" fill="#86C9E4"/>
<path d="M525.789 278.17C527.753 278.17 529.344 276.579 529.344 274.618C529.344 272.657 527.753 271.066 525.789 271.066C523.826 271.066 522.234 272.657 522.234 274.618C522.234 276.579 523.826 278.17 525.789 278.17Z" fill="#86C9E4"/>
<path d="M578.004 368.533C579.968 368.533 581.559 366.943 581.559 364.981C581.559 363.02 579.968 361.43 578.004 361.43C576.041 361.43 574.449 363.02 574.449 364.981C574.449 366.943 576.041 368.533 578.004 368.533Z" fill="#FF8457"/>
<path d="M578.004 308.291C579.968 308.291 581.559 306.701 581.559 304.739C581.559 302.778 579.968 301.188 578.004 301.188C576.041 301.188 574.449 302.778 574.449 304.739C574.449 306.701 576.041 308.291 578.004 308.291Z" fill="#86C9E4"/>
<path d="M578.004 67.3375C579.968 67.3375 581.559 65.7474 581.559 63.7859C581.559 61.8245 579.968 60.2344 578.004 60.2344C576.041 60.2344 574.449 61.8245 574.449 63.7859C574.449 65.7474 576.041 67.3375 578.004 67.3375Z" fill="#86C9E4"/>
<path d="M525.774 97.4586C527.737 97.4586 529.329 95.8685 529.329 93.907C529.329 91.9456 527.737 90.3555 525.774 90.3555C523.81 90.3555 522.219 91.9456 522.219 93.907C522.219 95.8685 523.81 97.4586 525.774 97.4586Z" fill="#86C9E4"/>
<path d="M473.555 67.3375C475.518 67.3375 477.11 65.7474 477.11 63.7859C477.11 61.8245 475.518 60.2344 473.555 60.2344C471.592 60.2344 470 61.8245 470 63.7859C470 65.7474 471.592 67.3375 473.555 67.3375Z" fill="#FF8457"/>
<path d="M421.328 37.2203C423.292 37.2203 424.883 35.6302 424.883 33.6688C424.883 31.7073 423.292 30.1172 421.328 30.1172C419.365 30.1172 417.773 31.7073 417.773 33.6688C417.773 35.6302 419.365 37.2203 421.328 37.2203Z" fill="#FF8457"/>
<path d="M1152.45 274.617L1045.99 334.851L943.566 274.617V214.375L1045.94 154.141L1100.23 184.262L1048.01 214.382L1048.01 274.617L943.559 334.859L943.566 395.093L995.786 364.972V245.702" stroke="#86C9E4" stroke-width="0.75" stroke-miterlimit="10"/>
<path d="M1048.01 274.617L1099.22 304.738" stroke="#86C9E4" stroke-width="0.75" stroke-miterlimit="10"/>
<path d="M1045.93 154.141V95.1055" stroke="#86C9E4" stroke-width="0.75" stroke-miterlimit="10"/>
<path d="M943.564 274.617L682.449 425.214" stroke="#86C9E4" stroke-width="0.75" stroke-miterlimit="10"/>
<path d="M786.891 244.499L578.004 364.975L734.671 455.338L786.898 425.217V304.741L839.118 274.62V154.144L786.898 124.023V63.7889L734.671 33.668L578.004 124.023V184.265L630.231 214.378L734.671 154.144L839.118 214.378L943.558 154.144L1100.23 244.499" stroke="#86C9E4" stroke-width="0.75" stroke-miterlimit="10"/>
<path d="M995.784 425.214L891.337 364.972L891.33 304.738L839.117 274.617" stroke="#86C9E4" stroke-width="0.75" stroke-miterlimit="10"/>
<path d="M786.897 485.452L734.67 455.339L734.677 395.097L682.45 364.976L630.223 395.097L630.23 455.339L682.45 425.218V244.5" stroke="#86C9E4" stroke-width="0.75" stroke-miterlimit="10"/>
<path d="M943.565 214.375L839.118 154.141L786.891 184.269L786.898 304.738" stroke="#86C9E4" stroke-width="0.75" stroke-miterlimit="10"/>
<path d="M839.116 334.858L734.676 274.624L734.669 214.374L682.441 184.261V63.7848L786.896 124.019L839.116 93.9057V33.6639L786.896 3.54297" stroke="#FF8457" stroke-width="0.75" stroke-miterlimit="10"/>
<path d="M995.785 184.263L996.31 124.32L944.09 94.207L891.863 124.32L891.855 184.562" stroke="#86C9E4" stroke-width="0.75" stroke-miterlimit="10"/>
<path d="M943.559 154.141L943.566 93.9062" stroke="#86C9E4" stroke-width="0.75" stroke-miterlimit="10"/>
<path d="M786.898 364.973L839.118 395.094V455.335L786.898 425.214" stroke="#86C9E4" stroke-width="0.75" stroke-miterlimit="10"/>
<path d="M630.231 455.335L578.004 425.214V364.972V304.738L630.209 274.617" stroke="#86C9E4" stroke-width="0.75" stroke-miterlimit="10"/>
<path d="M630.23 214.375L630.207 334.851" stroke="#86C9E4" stroke-width="0.75" stroke-miterlimit="10"/>
<path d="M734.672 154.144V33.668" stroke="#86C9E4" stroke-width="0.75" stroke-miterlimit="10"/>
<path d="M839.118 33.668L786.898 63.7889" stroke="#86C9E4" stroke-width="0.75" stroke-miterlimit="10"/>
<path d="M682.443 124.023L630.238 93.9098L630.223 33.668L682.443 63.7889" stroke="#86C9E4" stroke-width="0.75" stroke-miterlimit="10"/>
<path d="M630.224 33.668L578.004 63.7889" stroke="#86C9E4" stroke-width="0.75" stroke-miterlimit="10"/>
<path d="M1152.45 278.17C1154.42 278.17 1156.01 276.579 1156.01 274.618C1156.01 272.657 1154.42 271.066 1152.45 271.066C1150.49 271.066 1148.9 272.657 1148.9 274.618C1148.9 276.579 1150.49 278.17 1152.45 278.17Z" fill="#86C9E4"/>
<path d="M1100.23 248.045C1102.19 248.045 1103.79 246.454 1103.79 244.493C1103.79 242.531 1102.19 240.941 1100.23 240.941C1098.27 240.941 1096.68 242.531 1096.68 244.493C1096.68 246.454 1098.27 248.045 1100.23 248.045Z" fill="#86C9E4"/>
<path d="M1048 278.17C1049.97 278.17 1051.56 276.579 1051.56 274.618C1051.56 272.657 1049.97 271.066 1048 271.066C1046.04 271.066 1044.45 272.657 1044.45 274.618C1044.45 276.579 1046.04 278.17 1048 278.17Z" fill="#86C9E4"/>
<path d="M1045.93 338.404C1047.9 338.404 1049.49 336.814 1049.49 334.852C1049.49 332.891 1047.9 331.301 1045.93 331.301C1043.97 331.301 1042.38 332.891 1042.38 334.852C1042.38 336.814 1043.97 338.404 1045.93 338.404Z" fill="#86C9E4"/>
<path d="M995.785 187.814C997.749 187.814 999.34 186.224 999.34 184.263C999.34 182.301 997.749 180.711 995.785 180.711C993.822 180.711 992.23 182.301 992.23 184.263C992.23 186.224 993.822 187.814 995.785 187.814Z" fill="#86C9E4"/>
<path d="M1045.93 98.6539C1047.9 98.6539 1049.49 97.0638 1049.49 95.1023C1049.49 93.1409 1047.9 91.5508 1045.93 91.5508C1043.97 91.5508 1042.38 93.1409 1042.38 95.1023C1042.38 97.0638 1043.97 98.6539 1045.93 98.6539Z" fill="#86C9E4"/>
<path d="M891.852 128.177C893.815 128.177 895.407 126.587 895.407 124.626C895.407 122.664 893.815 121.074 891.852 121.074C889.888 121.074 888.297 122.664 888.297 124.626C888.297 126.587 889.888 128.177 891.852 128.177Z" fill="#86C9E4"/>
<path d="M943.559 338.412C945.522 338.412 947.114 336.822 947.114 334.86C947.114 332.899 945.522 331.309 943.559 331.309C941.596 331.309 940.004 332.899 940.004 334.86C940.004 336.822 941.596 338.412 943.559 338.412Z" fill="#86C9E4"/>
<path d="M995.785 368.525C997.749 368.525 999.34 366.935 999.34 364.973C999.34 363.012 997.749 361.422 995.785 361.422C993.822 361.422 992.23 363.012 992.23 364.973C992.23 366.935 993.822 368.525 995.785 368.525Z" fill="#86C9E4"/>
<path d="M995.785 428.767C997.749 428.767 999.34 427.177 999.34 425.216C999.34 423.254 997.749 421.664 995.785 421.664C993.822 421.664 992.23 423.254 992.23 425.216C992.23 427.177 993.822 428.767 995.785 428.767Z" fill="#86C9E4"/>
<path d="M891.336 368.525C893.3 368.525 894.891 366.935 894.891 364.973C894.891 363.012 893.3 361.422 891.336 361.422C889.373 361.422 887.781 363.012 887.781 364.973C887.781 366.935 889.373 368.525 891.336 368.525Z" fill="#86C9E4"/>
<path d="M943.567 278.17C945.53 278.17 947.122 276.579 947.122 274.618C947.122 272.657 945.53 271.066 943.567 271.066C941.603 271.066 940.012 272.657 940.012 274.618C940.012 276.579 941.603 278.17 943.567 278.17Z" fill="#86C9E4"/>
<path d="M839.117 338.412C841.081 338.412 842.672 336.822 842.672 334.86C842.672 332.899 841.081 331.309 839.117 331.309C837.154 331.309 835.562 332.899 835.562 334.86C835.562 336.822 837.154 338.412 839.117 338.412Z" fill="#86C9E4"/>
<path d="M839.117 398.646C841.081 398.646 842.672 397.056 842.672 395.095C842.672 393.133 841.081 391.543 839.117 391.543C837.154 391.543 835.562 393.133 835.562 395.095C835.562 397.056 837.154 398.646 839.117 398.646Z" fill="#86C9E4"/>
<path d="M786.899 489.002C788.862 489.002 790.454 487.411 790.454 485.45C790.454 483.489 788.862 481.898 786.899 481.898C784.935 481.898 783.344 483.489 783.344 485.45C783.344 487.411 784.935 489.002 786.899 489.002Z" fill="#86C9E4"/>
<path d="M786.891 368.533C788.854 368.533 790.446 366.943 790.446 364.981C790.446 363.02 788.854 361.43 786.891 361.43C784.928 361.43 783.336 363.02 783.336 364.981C783.336 366.943 784.928 368.533 786.891 368.533Z" fill="#86C9E4"/>
<path d="M786.899 249.255C788.862 249.255 790.454 247.665 790.454 245.704C790.454 243.742 788.862 242.152 786.899 242.152C784.935 242.152 783.344 243.742 783.344 245.704C783.344 247.665 784.935 249.255 786.899 249.255Z" fill="#86C9E4"/>
<path d="M787.145 128.177C789.108 128.177 790.7 126.587 790.7 124.626C790.7 122.664 789.108 121.074 787.145 121.074C785.182 121.074 783.59 122.664 783.59 124.626C783.59 126.587 785.182 128.177 787.145 128.177Z" fill="#86C9E4"/>
<path d="M787.145 7.10314C789.108 7.10314 790.7 5.51304 790.7 3.55157C790.7 1.59009 789.108 0 787.145 0C785.182 0 783.59 1.59009 783.59 3.55157C783.59 5.51304 785.182 7.10314 787.145 7.10314Z" fill="#86C9E4"/>
<path d="M839.117 37.2164C841.081 37.2164 842.672 35.6263 842.672 33.6649C842.672 31.7034 841.081 30.1133 839.117 30.1133C837.154 30.1133 835.562 31.7034 835.562 33.6649C835.562 35.6263 837.154 37.2164 839.117 37.2164Z" fill="#FF8457"/>
<path d="M839.11 157.693C841.073 157.693 842.665 156.103 842.665 154.141C842.665 152.18 841.073 150.59 839.11 150.59C837.146 150.59 835.555 152.18 835.555 154.141C835.555 156.103 837.146 157.693 839.11 157.693Z" fill="#86C9E4"/>
<path d="M839.11 217.935C841.073 217.935 842.665 216.345 842.665 214.384C842.665 212.422 841.073 210.832 839.11 210.832C837.146 210.832 835.555 212.422 835.555 214.384C835.555 216.345 837.146 217.935 839.11 217.935Z" fill="#86C9E4"/>
<path d="M734.68 217.935C736.643 217.935 738.235 216.345 738.235 214.384C738.235 212.422 736.643 210.832 734.68 210.832C732.717 210.832 731.125 212.422 731.125 214.384C731.125 216.345 732.717 217.935 734.68 217.935Z" fill="#86C9E4"/>
<path d="M734.68 278.17C736.643 278.17 738.235 276.579 738.235 274.618C738.235 272.657 736.643 271.066 734.68 271.066C732.717 271.066 731.125 272.657 731.125 274.618C731.125 276.579 732.717 278.17 734.68 278.17Z" fill="#86C9E4"/>
<path d="M682.442 248.045C684.405 248.045 685.997 246.454 685.997 244.493C685.997 242.531 684.405 240.941 682.442 240.941C680.478 240.941 678.887 242.531 678.887 244.493C678.887 246.454 680.478 248.045 682.442 248.045Z" fill="#86C9E4"/>
<path d="M682.45 187.806C684.413 187.806 686.005 186.216 686.005 184.255C686.005 182.293 684.413 180.703 682.45 180.703C680.486 180.703 678.895 182.293 678.895 184.255C678.895 186.216 680.486 187.806 682.45 187.806Z" fill="#FF8457"/>
<path d="M682.45 368.533C684.413 368.533 686.005 366.943 686.005 364.981C686.005 363.02 684.413 361.43 682.45 361.43C680.486 361.43 678.895 363.02 678.895 364.981C678.895 366.943 680.486 368.533 682.45 368.533Z" fill="#86C9E4"/>
<path d="M734.672 458.892C736.636 458.892 738.227 457.302 738.227 455.341C738.227 453.379 736.636 451.789 734.672 451.789C732.709 451.789 731.117 453.379 731.117 455.341C731.117 457.302 732.709 458.892 734.672 458.892Z" fill="#86C9E4"/>
<path d="M630.231 458.877C632.194 458.877 633.786 457.286 633.786 455.325C633.786 453.364 632.194 451.773 630.231 451.773C628.267 451.773 626.676 453.364 626.676 455.325C626.676 457.286 628.267 458.877 630.231 458.877Z" fill="#86C9E4"/>
<path d="M630.231 398.646C632.194 398.646 633.786 397.056 633.786 395.095C633.786 393.133 632.194 391.543 630.231 391.543C628.267 391.543 626.676 393.133 626.676 395.095C626.676 397.056 628.267 398.646 630.231 398.646Z" fill="#86C9E4"/>
<path d="M630.207 278.17C632.171 278.17 633.762 276.579 633.762 274.618C633.762 272.657 632.171 271.066 630.207 271.066C628.244 271.066 626.652 272.657 626.652 274.618C626.652 276.579 628.244 278.17 630.207 278.17Z" fill="#86C9E4"/>
<path d="M630.231 97.4586C632.194 97.4586 633.786 95.8685 633.786 93.907C633.786 91.9456 632.194 90.3555 630.231 90.3555C628.267 90.3555 626.676 91.9456 626.676 93.907C626.676 95.8685 628.267 97.4586 630.231 97.4586Z" fill="#FF8457"/>
<path d="M682.45 67.3375C684.413 67.3375 686.005 65.7474 686.005 63.7859C686.005 61.8245 684.413 60.2344 682.45 60.2344C680.486 60.2344 678.895 61.8245 678.895 63.7859C678.895 65.7474 680.486 67.3375 682.45 67.3375Z" fill="#86C9E4"/>
<path d="M734.68 37.2164C736.643 37.2164 738.235 35.6263 738.235 33.6649C738.235 31.7034 736.643 30.1133 734.68 30.1133C732.717 30.1133 731.125 31.7034 731.125 33.6649C731.125 35.6263 732.717 37.2164 734.68 37.2164Z" fill="#86C9E4"/>
<path d="M525.793 274.62L578.005 248.051L630.21 274.62" stroke="#86C9E4" stroke-width="0.75" stroke-miterlimit="10"/>
</g>
<defs>
<clipPath id="clip0_7946_40552">
<rect width="1156" height="489" fill="white"/>
</clipPath>
</defs>
</svg>
